<svg xmlns="http://www.w3.org/2000/svg" width="1800" height="1100" viewBox="0 0 1800 1100">
<defs><marker id="arrow" markerWidth="10" markerHeight="10" refX="9" refY="3" orient="auto" markerUnits="strokeWidth"><path d="M0,0 L0,6 L9,3 z" fill="#475569"/></marker><filter id="shadow" x="-20%" y="-20%" width="140%" height="140%"><feDropShadow dx="0" dy="3" stdDeviation="3" flood-color="#0f172a" flood-opacity="0.18"/></filter></defs>
<rect width="100%" height="100%" fill="#ffffff"/>
<text x="60" y="48" font-family="Arial, Helvetica, sans-serif" font-size="32" font-weight="700" fill="#0f172a">nexusgraph-ai traffic flow architecture</text>
<text x="60" y="80" font-family="Arial, Helvetica, sans-serif" font-size="18" fill="#475569">External internet traffic flows through CDN and edge services into product domains, with observability, on-call, runbooks, escalation policies, and SLO metrics linked to services.</text>
<line x1="150.0" y1="490.0" x2="405.0" y2="490.0" stroke="#64748b" stroke-width="2.2" marker-end="url(#arrow)" opacity="0.86"/>
<line x1="405.0" y1="490.0" x2="680.0" y2="490.0" stroke="#64748b" stroke-width="2.2" marker-end="url(#arrow)" opacity="0.86"/>
<line x1="680.0" y1="490.0" x2="960.0" y2="490.0" stroke="#64748b" stroke-width="2.2" marker-end="url(#arrow)" opacity="0.86"/>
<line x1="960.0" y1="490.0" x2="1245.0" y2="137.0" stroke="#64748b" stroke-width="2.2" marker-end="url(#arrow)" opacity="0.86"/>
<line x1="1245.0" y1="137.0" x2="1435.0" y2="117.0" stroke="#64748b" stroke-width="2.2" marker-end="url(#arrow)" opacity="0.86"/>
<line x1="1245.0" y1="137.0" x2="1445.0" y2="187.0" stroke="#64748b" stroke-width="2.2" marker-end="url(#arrow)" opacity="0.86"/>
<line x1="960.0" y1="490.0" x2="1255.0" y2="344.0" stroke="#64748b" stroke-width="2.2" marker-end="url(#arrow)" opacity="0.86"/>
<line x1="1255.0" y1="344.0" x2="1455.0" y2="284.0" stroke="#64748b" stroke-width="2.2" marker-end="url(#arrow)" opacity="0.86"/>
<line x1="1255.0" y1="344.0" x2="1460.0" y2="342.0" stroke="#64748b" stroke-width="2.2" marker-end="url(#arrow)" opacity="0.86"/>
<line x1="1255.0" y1="344.0" x2="1475.0" y2="400.0" stroke="#64748b" stroke-width="2.2" marker-end="url(#arrow)" opacity="0.86"/>
<line x1="1255.0" y1="344.0" x2="1645.0" y2="342.0" stroke="#64748b" stroke-width="2.2" marker-end="url(#arrow)" opacity="0.86"/>
<line x1="960.0" y1="490.0" x2="1250.0" y2="560.0" stroke="#64748b" stroke-width="2.2" marker-end="url(#arrow)" opacity="0.86"/>
<line x1="1250.0" y1="560.0" x2="1442.5" y2="524.0" stroke="#64748b" stroke-width="2.2" marker-end="url(#arrow)" opacity="0.86"/>
<line x1="1250.0" y1="560.0" x2="1432.5" y2="582.0" stroke="#64748b" stroke-width="2.2" marker-end="url(#arrow)" opacity="0.86"/>
<line x1="960.0" y1="490.0" x2="1275.0" y2="645.0" stroke="#64748b" stroke-width="2.2" marker-end="url(#arrow)" opacity="0.86"/>
<line x1="1275.0" y1="645.0" x2="1515.0" y2="634.0" stroke="#64748b" stroke-width="2.2" marker-end="url(#arrow)" opacity="0.86"/>
<line x1="1275.0" y1="645.0" x2="1502.5" y2="684.0" stroke="#64748b" stroke-width="2.2" marker-end="url(#arrow)" opacity="0.86"/>
<line x1="1275.0" y1="645.0" x2="1510.0" y2="584.0" stroke="#64748b" stroke-width="2.2" marker-end="url(#arrow)" opacity="0.86"/>
<line x1="960.0" y1="490.0" x2="1250.0" y2="827.0" stroke="#64748b" stroke-width="2.2" marker-end="url(#arrow)" opacity="0.86"/>
<line x1="1250.0" y1="827.0" x2="1460.0" y2="773.0" stroke="#64748b" stroke-width="2.2" marker-end="url(#arrow)" opacity="0.86"/>
<line x1="1250.0" y1="827.0" x2="1455.0" y2="828.0" stroke="#64748b" stroke-width="2.2" marker-end="url(#arrow)" opacity="0.86"/>
<line x1="1250.0" y1="827.0" x2="1472.5" y2="883.0" stroke="#64748b" stroke-width="2.2" marker-end="url(#arrow)" opacity="0.86"/>
<line x1="1255.0" y1="344.0" x2="392.5" y2="814.0" stroke="#64748b" stroke-width="2.2" marker-end="url(#arrow)" opacity="0.86"/>
<line x1="1250.0" y1="827.0" x2="387.5" y2="874.0" stroke="#64748b" stroke-width="2.2" marker-end="url(#arrow)" opacity="0.86"/>
<line x1="1275.0" y1="645.0" x2="420.0" y2="934.0" stroke="#64748b" stroke-width="2.2" marker-end="url(#arrow)" opacity="0.86"/>
<line x1="392.5" y1="814.0" x2="705.0" y2="877.0" stroke="#64748b" stroke-width="2.2" marker-end="url(#arrow)" opacity="0.86"/>
<line x1="387.5" y1="874.0" x2="705.0" y2="877.0" stroke="#64748b" stroke-width="2.2" marker-end="url(#arrow)" opacity="0.86"/>
<line x1="420.0" y1="934.0" x2="705.0" y2="877.0" stroke="#64748b" stroke-width="2.2" marker-end="url(#arrow)" opacity="0.86"/>
<line x1="705.0" y1="877.0" x2="955.0" y2="877.0" stroke="#64748b" stroke-width="2.2" marker-end="url(#arrow)" opacity="0.86"/>
<line x1="1255.0" y1="344.0" x2="610.0" y2="183.0" stroke="#64748b" stroke-width="2.2" marker-end="url(#arrow)" opacity="0.86"/>
<line x1="1250.0" y1="827.0" x2="610.0" y2="183.0" stroke="#64748b" stroke-width="2.2" marker-end="url(#arrow)" opacity="0.86"/>
<line x1="1245.0" y1="137.0" x2="610.0" y2="183.0" stroke="#64748b" stroke-width="2.2" marker-end="url(#arrow)" opacity="0.86"/>
<line x1="1275.0" y1="645.0" x2="610.0" y2="183.0" stroke="#64748b" stroke-width="2.2" marker-end="url(#arrow)" opacity="0.86"/>
<line x1="610.0" y1="183.0" x2="405.0" y2="285.0" stroke="#64748b" stroke-width="2.2" marker-end="url(#arrow)" opacity="0.86"/>
<line x1="610.0" y1="183.0" x2="630.0" y2="285.0" stroke="#64748b" stroke-width="2.2" marker-end="url(#arrow)" opacity="0.86"/>
<line x1="610.0" y1="183.0" x2="857.5" y2="180.0" stroke="#64748b" stroke-width="2.2" marker-end="url(#arrow)" opacity="0.86"/>
<line x1="630.0" y1="285.0" x2="827.5" y2="253.0" stroke="#64748b" stroke-width="2.2" marker-end="url(#arrow)" opacity="0.86"/>
<line x1="630.0" y1="285.0" x2="855.0" y2="309.0" stroke="#64748b" stroke-width="2.2" marker-end="url(#arrow)" opacity="0.86"/>
<rect x="1130" y="70" width="570" height="150" rx="10" fill="#f8fafc" stroke="#cbd5e1" stroke-width="2"/>
<text x="1148" y="100" font-family="Arial, Helvetica, sans-serif" font-size="18" font-weight="700" fill="#111827">Identity</text>
<rect x="1130" y="255" width="570" height="185" rx="10" fill="#f8fafc" stroke="#cbd5e1" stroke-width="2"/>
<text x="1148" y="285" font-family="Arial, Helvetica, sans-serif" font-size="18" font-weight="700" fill="#111827">Playback</text>
<rect x="1130" y="475" width="570" height="225" rx="10" fill="#f8fafc" stroke="#cbd5e1" stroke-width="2"/>
<text x="1148" y="505" font-family="Arial, Helvetica, sans-serif" font-size="18" font-weight="700" fill="#111827">Discovery and Recommendations</text>
<rect x="1130" y="735" width="570" height="165" rx="10" fill="#f8fafc" stroke="#cbd5e1" stroke-width="2"/>
<text x="1148" y="765" font-family="Arial, Helvetica, sans-serif" font-size="18" font-weight="700" fill="#111827">Billing</text>
<rect x="260" y="720" width="760" height="240" rx="10" fill="#f8fafc" stroke="#cbd5e1" stroke-width="2"/>
<text x="278" y="750" font-family="Arial, Helvetica, sans-serif" font-size="18" font-weight="700" fill="#111827">Events and Data</text>
<rect x="260" y="80" width="760" height="285" rx="10" fill="#f8fafc" stroke="#cbd5e1" stroke-width="2"/>
<text x="278" y="110" font-family="Arial, Helvetica, sans-serif" font-size="18" font-weight="700" fill="#111827">Operations</text>
<rect x="60" y="445" width="180" height="90" rx="22" fill="#111827" stroke="#94a3b8" stroke-width="1.5" filter="url(#shadow)"/>
<text x="150.0" y="496.0" text-anchor="middle" font-family="Arial, Helvetica, sans-serif" font-size="15" font-weight="700" fill="#ffffff">Internet</text>
<rect x="300" y="445" width="210" height="90" rx="8" fill="#1f2937" stroke="#94a3b8" stroke-width="1.5" filter="url(#shadow)"/>
<text x="405.0" y="496.0" text-anchor="middle" font-family="Arial, Helvetica, sans-serif" font-size="15" font-weight="700" fill="#ffffff">Fastly CDN</text>
<rect x="570" y="445" width="220" height="90" rx="8" fill="#374151" stroke="#94a3b8" stroke-width="1.5" filter="url(#shadow)"/>
<text x="680.0" y="496.0" text-anchor="middle" font-family="Arial, Helvetica, sans-serif" font-size="15" font-weight="700" fill="#ffffff">edge-router</text>
<rect x="850" y="445" width="220" height="90" rx="8" fill="#374151" stroke="#94a3b8" stroke-width="1.5" filter="url(#shadow)"/>
<text x="960.0" y="496.0" text-anchor="middle" font-family="Arial, Helvetica, sans-serif" font-size="15" font-weight="700" fill="#ffffff">api-gateway</text>
<rect x="1170" y="110" width="150" height="54" rx="8" fill="#dbeafe" stroke="#94a3b8" stroke-width="1.5" filter="url(#shadow)"/>
<text x="1245.0" y="143.0" text-anchor="middle" font-family="Arial, Helvetica, sans-serif" font-size="15" font-weight="700" fill="#111827">auth-service</text>
<rect x="1360" y="90" width="150" height="54" rx="8" fill="#dbeafe" stroke="#94a3b8" stroke-width="1.5" filter="url(#shadow)"/>
<text x="1435.0" y="123.0" text-anchor="middle" font-family="Arial, Helvetica, sans-serif" font-size="15" font-weight="700" fill="#111827">account-service</text>
<rect x="1360" y="160" width="170" height="54" rx="8" fill="#dbeafe" stroke="#94a3b8" stroke-width="1.5" filter="url(#shadow)"/>
<text x="1445.0" y="193.0" text-anchor="middle" font-family="Arial, Helvetica, sans-serif" font-size="15" font-weight="700" fill="#111827">device-auth-service</text>
<rect x="1170" y="315" width="170" height="58" rx="8" fill="#dcfce7" stroke="#94a3b8" stroke-width="1.5" filter="url(#shadow)"/>
<text x="1255.0" y="350.0" text-anchor="middle" font-family="Arial, Helvetica, sans-serif" font-size="15" font-weight="700" fill="#111827">playback-service</text>
<rect x="1380" y="260" width="150" height="48" rx="8" fill="#dcfce7" stroke="#94a3b8" stroke-width="1.5" filter="url(#shadow)"/>
<text x="1455.0" y="290.0" text-anchor="middle" font-family="Arial, Helvetica, sans-serif" font-size="15" font-weight="700" fill="#111827">license-service</text>
<rect x="1380" y="318" width="160" height="48" rx="8" fill="#dcfce7" stroke="#94a3b8" stroke-width="1.5" filter="url(#shadow)"/>
<text x="1460.0" y="348.0" text-anchor="middle" font-family="Arial, Helvetica, sans-serif" font-size="15" font-weight="700" fill="#111827">manifest-service</text>
<rect x="1380" y="376" width="190" height="48" rx="8" fill="#dcfce7" stroke="#94a3b8" stroke-width="1.5" filter="url(#shadow)"/>
<text x="1475.0" y="406.0" text-anchor="middle" font-family="Arial, Helvetica, sans-serif" font-size="15" font-weight="700" fill="#111827">cdn-routing-service</text>
<rect x="1570" y="318" width="150" height="48" rx="8" fill="#dcfce7" stroke="#94a3b8" stroke-width="1.5" filter="url(#shadow)"/>
<text x="1645.0" y="348.0" text-anchor="middle" font-family="Arial, Helvetica, sans-serif" font-size="15" font-weight="700" fill="#111827">subtitle-service</text>
<rect x="1170" y="535" width="160" height="50" rx="8" fill="#fef3c7" stroke="#94a3b8" stroke-width="1.5" filter="url(#shadow)"/>
<text x="1250.0" y="566.0" text-anchor="middle" font-family="Arial, Helvetica, sans-serif" font-size="15" font-weight="700" fill="#111827">catalog-service</text>
<rect x="1360" y="500" width="165" height="48" rx="8" fill="#fef3c7" stroke="#94a3b8" stroke-width="1.5" filter="url(#shadow)"/>
<text x="1442.5" y="530.0" text-anchor="middle" font-family="Arial, Helvetica, sans-serif" font-size="15" font-weight="700" fill="#111827">metadata-service</text>
<rect x="1360" y="558" width="145" height="48" rx="8" fill="#fef3c7" stroke="#94a3b8" stroke-width="1.5" filter="url(#shadow)"/>
<text x="1432.5" y="588.0" text-anchor="middle" font-family="Arial, Helvetica, sans-serif" font-size="15" font-weight="700" fill="#111827">search-service</text>
<rect x="1170" y="620" width="210" height="50" rx="8" fill="#fef3c7" stroke="#94a3b8" stroke-width="1.5" filter="url(#shadow)"/>
<text x="1275.0" y="651.0" text-anchor="middle" font-family="Arial, Helvetica, sans-serif" font-size="15" font-weight="700" fill="#111827">recommendation-service</text>
<rect x="1410" y="612" width="210" height="44" rx="8" fill="#fef3c7" stroke="#94a3b8" stroke-width="1.5" filter="url(#shadow)"/>
<text x="1515.0" y="631.0" text-anchor="middle" font-family="Arial, Helvetica, sans-serif" font-size="15" font-weight="700" fill="#111827">personalization-service</text>
<text x="1515.0" y="649.0" text-anchor="middle" font-family="Arial, Helvetica, sans-serif" font-size="15" font-weight="700" fill="#111827"></text>
<rect x="1410" y="662" width="185" height="44" rx="8" fill="#fef3c7" stroke="#94a3b8" stroke-width="1.5" filter="url(#shadow)"/>
<text x="1502.5" y="690.0" text-anchor="middle" font-family="Arial, Helvetica, sans-serif" font-size="15" font-weight="700" fill="#111827">ml-ranking-service</text>
<rect x="1410" y="562" width="200" height="44" rx="8" fill="#fef3c7" stroke="#94a3b8" stroke-width="1.5" filter="url(#shadow)"/>
<text x="1510.0" y="590.0" text-anchor="middle" font-family="Arial, Helvetica, sans-serif" font-size="15" font-weight="700" fill="#111827">feature-store-service</text>
<rect x="1170" y="800" width="160" height="54" rx="8" fill="#fee2e2" stroke="#94a3b8" stroke-width="1.5" filter="url(#shadow)"/>
<text x="1250.0" y="833.0" text-anchor="middle" font-family="Arial, Helvetica, sans-serif" font-size="15" font-weight="700" fill="#111827">billing-service</text>
<rect x="1380" y="750" width="160" height="46" rx="8" fill="#fee2e2" stroke="#94a3b8" stroke-width="1.5" filter="url(#shadow)"/>
<text x="1460.0" y="779.0" text-anchor="middle" font-family="Arial, Helvetica, sans-serif" font-size="15" font-weight="700" fill="#111827">payment-service</text>
<rect x="1380" y="805" width="150" height="46" rx="8" fill="#fee2e2" stroke="#94a3b8" stroke-width="1.5" filter="url(#shadow)"/>
<text x="1455.0" y="834.0" text-anchor="middle" font-family="Arial, Helvetica, sans-serif" font-size="15" font-weight="700" fill="#111827">invoice-service</text>
<rect x="1380" y="860" width="185" height="46" rx="8" fill="#fee2e2" stroke="#94a3b8" stroke-width="1.5" filter="url(#shadow)"/>
<text x="1472.5" y="889.0" text-anchor="middle" font-family="Arial, Helvetica, sans-serif" font-size="15" font-weight="700" fill="#111827">subscription-service</text>
<rect x="310" y="790" width="165" height="48" rx="8" fill="#ede9fe" stroke="#94a3b8" stroke-width="1.5" filter="url(#shadow)"/>
<text x="392.5" y="820.0" text-anchor="middle" font-family="Arial, Helvetica, sans-serif" font-size="15" font-weight="700" fill="#111827">playback-events</text>
<rect x="310" y="850" width="155" height="48" rx="8" fill="#ede9fe" stroke="#94a3b8" stroke-width="1.5" filter="url(#shadow)"/>
<text x="387.5" y="880.0" text-anchor="middle" font-family="Arial, Helvetica, sans-serif" font-size="15" font-weight="700" fill="#111827">billing-events</text>
<rect x="310" y="910" width="220" height="48" rx="8" fill="#ede9fe" stroke="#94a3b8" stroke-width="1.5" filter="url(#shadow)"/>
<text x="420.0" y="940.0" text-anchor="middle" font-family="Arial, Helvetica, sans-serif" font-size="15" font-weight="700" fill="#111827">recommendation-events</text>
<rect x="590" y="850" width="230" height="54" rx="8" fill="#ede9fe" stroke="#94a3b8" stroke-width="1.5" filter="url(#shadow)"/>
<text x="705.0" y="874.0" text-anchor="middle" font-family="Arial, Helvetica, sans-serif" font-size="15" font-weight="700" fill="#111827">event-ingestion</text>
<text x="705.0" y="892.0" text-anchor="middle" font-family="Arial, Helvetica, sans-serif" font-size="15" font-weight="700" fill="#111827">service</text>
<rect x="870" y="850" width="170" height="54" rx="8" fill="#ede9fe" stroke="#94a3b8" stroke-width="1.5" filter="url(#shadow)"/>
<text x="955.0" y="883.0" text-anchor="middle" font-family="Arial, Helvetica, sans-serif" font-size="15" font-weight="700" fill="#111827">analytics-service</text>
<rect x="500" y="155" width="220" height="56" rx="8" fill="#e0f2fe" stroke="#94a3b8" stroke-width="1.5" filter="url(#shadow)"/>
<text x="610.0" y="189.0" text-anchor="middle" font-family="Arial, Helvetica, sans-serif" font-size="15" font-weight="700" fill="#111827">observability-service</text>
<rect x="310" y="260" width="190" height="50" rx="8" fill="#e0f2fe" stroke="#94a3b8" stroke-width="1.5" filter="url(#shadow)"/>
<text x="405.0" y="291.0" text-anchor="middle" font-family="Arial, Helvetica, sans-serif" font-size="15" font-weight="700" fill="#111827">Grafana dashboards</text>
<rect x="540" y="260" width="180" height="50" rx="8" fill="#e0f2fe" stroke="#94a3b8" stroke-width="1.5" filter="url(#shadow)"/>
<text x="630.0" y="291.0" text-anchor="middle" font-family="Arial, Helvetica, sans-serif" font-size="15" font-weight="700" fill="#111827">on-call schedules</text>
<rect x="760" y="230" width="135" height="46" rx="8" fill="#e0f2fe" stroke="#94a3b8" stroke-width="1.5" filter="url(#shadow)"/>
<text x="827.5" y="259.0" text-anchor="middle" font-family="Arial, Helvetica, sans-serif" font-size="15" font-weight="700" fill="#111827">runbooks</text>
<rect x="760" y="286" width="190" height="46" rx="8" fill="#e0f2fe" stroke="#94a3b8" stroke-width="1.5" filter="url(#shadow)"/>
<text x="855.0" y="315.0" text-anchor="middle" font-family="Arial, Helvetica, sans-serif" font-size="15" font-weight="700" fill="#111827">escalation policies</text>
<rect x="785" y="155" width="145" height="50" rx="8" fill="#e0f2fe" stroke="#94a3b8" stroke-width="1.5" filter="url(#shadow)"/>
<text x="857.5" y="186.0" text-anchor="middle" font-family="Arial, Helvetica, sans-serif" font-size="15" font-weight="700" fill="#111827">SLO metrics</text>
<text x="60" y="1040" font-family="Arial, Helvetica, sans-serif" font-size="15" fill="#64748b">Source: StreamFlix synthetic organizational graph plus Netflix synthetic service-dependency dataset. Diagram represents traffic and operational reference flow, not runtime network policy.</text>
</svg>
